<?xml version="1.0" encoding="UTF-8" standalone="no"?>
<!-- Created with Inkscape (http://www.inkscape.org/) -->

<svg
   width="1122"
   height="518"
   viewBox="0 0 296.8625 137.0541"
   version="1.1"
   id="svg5"
   xml:space="preserve"
   inkscape:version="1.2 (dc2aedaf03, 2022-05-15)"
   sodipodi:docname="Japfa.svg"
   xmlns:inkscape="http://www.inkscape.org/namespaces/inkscape"
   xmlns:sodipodi="http://sodipodi.sourceforge.net/DTD/sodipodi-0.dtd"
   xmlns="http://www.w3.org/2000/svg"
   xmlns:svg="http://www.w3.org/2000/svg"><sodipodi:namedview
     id="namedview7"
     pagecolor="#ffffff"
     bordercolor="#000000"
     borderopacity="0.25"
     inkscape:showpageshadow="2"
     inkscape:pageopacity="0.0"
     inkscape:pagecheckerboard="0"
     inkscape:deskcolor="#d1d1d1"
     inkscape:document-units="mm"
     showgrid="false"
     inkscape:zoom="0.74564394"
     inkscape:cx="582.04724"
     inkscape:cy="244.08433"
     inkscape:window-width="1920"
     inkscape:window-height="1017"
     inkscape:window-x="-8"
     inkscape:window-y="-8"
     inkscape:window-maximized="1"
     inkscape:current-layer="layer1" /><defs
     id="defs2"><clipPath
       clipPathUnits="userSpaceOnUse"
       id="clipPath23"><path
         d="M 25.511,25.511 H 569.763 V 816.378 H 25.511 Z"
         id="path21" /></clipPath><clipPath
       clipPathUnits="userSpaceOnUse"
       id="clipPath41"><path
         d="M 0,0 H 595.276 V 841.89 H 0 Z"
         id="path39" /></clipPath><clipPath
       clipPathUnits="userSpaceOnUse"
       id="clipPath95"><path
         d="M 0,0 H 595.276 V 841.89 H 0 Z"
         id="path93" /></clipPath></defs><g
     inkscape:label="Lapis 1"
     inkscape:groupmode="layer"
     id="layer1"><g
       id="g89"
       transform="matrix(3.2234591,0,0,-3.2234591,-810.91977,1891.8379)"><g
         id="g91"
         clip-path="url(#clipPath95)"><g
           id="g97"
           transform="translate(268.9203,586.2599)"><path
             d="m 0,0 c 0,0 -2.356,-1.855 0.464,-5.301 1.996,-2.438 4.411,-1.376 4.411,-1.376 0,0 2.714,1.55 0.249,5.035 C 2.615,1.907 0,0 0,0"
             style="fill:#dd5417;fill-opacity:1;fill-rule:nonzero;stroke:none"
             id="path99" /></g><g
           id="g101"
           transform="translate(261.7104,582.0411)"><path
             d="m 0,0 c 0,0 7.347,-3.271 11.228,-3.854 3.881,-0.582 7.79,-0.804 10.036,-0.471 0.878,0.13 1.386,0.471 1.386,0.471 0,0 0,-1.469 -3.937,-2.911 -2.525,-0.925 -4.158,-0.388 -4.158,-0.388 0,0 3.133,-6.488 0.277,-12.643 -0.637,-1.372 -3.077,-5.794 -7.402,-7.568 -0.634,-0.26 -2.273,-0.749 -2.273,-0.749 0,0 5.461,-0.056 11.754,5.101 1.277,1.047 6.626,5.268 9.648,14.722 0.168,0.526 3.41,10.203 -5.129,10.619 -3.219,0.157 -6.931,-0.555 -6.931,-0.555 0,0 7.874,2.801 13.28,0.195 0,0 8.068,-3.522 0.97,-15.332 -0.657,-1.094 -5.295,-8.457 -15.858,-13.641 0,0 -14.055,-7.292 -20.931,-0.083 -2.113,2.215 -4.713,9.537 5.379,18.908 1.697,1.576 5.544,4.436 5.544,4.436 0,0 -8.982,-8.262 -7.818,-17.023 0.465,-3.498 2.384,-5.989 5.767,-6.931 1.101,-0.307 1.389,-0.506 2.17,-0.203 0.78,0.302 7.531,2.077 7.531,13.069 0,3.403 -2.554,8.958 -6.362,11.816 C 2.916,-2.074 0,0 0,0"
             style="fill:#dd5417;fill-opacity:1;fill-rule:nonzero;stroke:none"
             id="path103" /></g><g
           id="g105"
           transform="translate(285.1862,557.5601)"><path
             d="M 0,0 C 0,0 0.88,-0.096 1.647,-0.096 2.413,-0.096 3.325,0 3.325,0 v -8.329 c 0,0 0.248,-2.402 -1.774,-3.74 -3.166,-2.094 -6.203,-0.224 -6.203,-0.224 l 0.16,0.816 c 0,0 3.078,-1.351 4.045,0.511 C 0.192,-9.735 0,-8.488 0,-8.488 Z"
             style="fill:#231f20;fill-opacity:1;fill-rule:nonzero;stroke:none"
             id="path107" /></g><g
           id="g109"
           transform="translate(317.5246,555.1757)"><path
             d="M 0,0 C -0.523,2.503 -3.81,2.413 -3.81,2.413 H -9.22 V -10.24 c 0,0 0.958,0.116 1.542,0.116 0.583,0 1.484,-0.087 1.484,-0.087 v 5.527 c 0,0 2.732,-0.116 4.303,0.639 C -1.127,-3.678 0.523,-2.503 0,0 m -4.478,-3.433 c -0.235,-0.232 -1.716,-0.261 -1.716,-0.261 v 5.088 l 1.51,0.029 c 0,0 1.513,-0.261 1.629,-2.355 0.116,-2.094 -1.244,-2.323 -1.423,-2.501"
             style="fill:#231f20;fill-opacity:1;fill-rule:nonzero;stroke:none"
             id="path111" /></g><g
           id="g113"
           transform="translate(321.1023,557.5891)"><path
             d="m 0,0 h 7.678 c 0,0 -0.174,-0.317 -0.174,-0.755 0,-0.438 0.203,-0.845 0.203,-0.845 0,0 -1.658,0.145 -2.5,0.203 -0.843,0.058 -2.21,0.058 -2.21,0.058 v -3.984 c 0,0 1.919,-0.029 2.471,0 0.552,0.029 2.094,0.145 2.094,0.145 0,0 -0.087,-0.317 -0.087,-0.726 0,-0.409 0.116,-0.787 0.116,-0.787 0,0 -1.135,0.087 -2.094,0.116 -0.958,0.029 -2.5,0.029 -2.5,0.029 v -6.107 c 0,0 -0.845,0.145 -1.397,0.145 -0.552,0 -1.6,-0.145 -1.6,-0.145 z"
             style="fill:#231f20;fill-opacity:1;fill-rule:nonzero;stroke:none"
             id="path115" /></g><g
           id="g117"
           transform="translate(304.4364,544.9651)"><path
             d="m 0,0 -5.59,12.759 c 0,0 -0.609,-0.058 -0.792,-0.068 -0.183,-0.009 -0.741,0.068 -0.741,0.068 L -12.887,0 c 0,0 0.612,0.058 0.873,0.058 0.262,0 1.136,-0.029 1.136,-0.029 0,0 0.232,0.929 0.319,1.194 0.087,0.264 1.006,2.585 1.006,2.585 l 4.724,0.031 0.435,-1.106 c 0.146,-0.322 0.962,-2.762 0.962,-2.762 0,0 1.425,0.087 1.803,0.116 C -1.252,0.116 0,0 0,0 m -5.265,4.946 -3.752,-0.029 1.92,4.274 z"
             style="fill:#231f20;fill-opacity:1;fill-rule:nonzero;stroke:none"
             id="path119" /></g><g
           id="g121"
           transform="translate(343.5545,544.9166)"><path
             d="m 0,0 -5.59,12.759 c 0,0 -0.609,-0.058 -0.792,-0.068 -0.183,-0.009 -0.742,0.068 -0.742,0.068 L -12.888,0 c 0,0 0.613,0.058 0.874,0.058 0.262,0 1.136,-0.029 1.136,-0.029 0,0 0.232,0.929 0.319,1.194 0.087,0.264 1.006,2.584 1.006,2.584 l 4.724,0.032 0.435,-1.106 c 0.146,-0.322 0.962,-2.762 0.962,-2.762 0,0 1.425,0.087 1.803,0.116 C -1.252,0.116 0,0 0,0 m -5.265,4.946 -3.752,-0.029 1.92,4.274 z"
             style="fill:#231f20;fill-opacity:1;fill-rule:nonzero;stroke:none"
             id="path123" /></g></g></g></g></svg>
